<svg xmlns="http://www.w3.org/2000/svg" xmlns:xlink="http://www.w3.org/1999/xlink" version="1.1" x="0px" y="0px" viewBox="0 0 100 125" enable-background="new 0 0 100 100" xml:space="preserve"><g><path d="M12.5,84.5h-5C6.7,84.5,6,83.8,6,83s0.7-1.5,1.5-1.5h5c0.8,0,1.5,0.7,1.5,1.5S13.3,84.5,12.5,84.5z"/></g><g><path d="M22.5,84.5h-5c-0.8,0-1.5-0.7-1.5-1.5s0.7-1.5,1.5-1.5h5c0.8,0,1.5,0.7,1.5,1.5S23.3,84.5,22.5,84.5z"/></g><g><path d="M32.5,84.5h-5c-0.8,0-1.5-0.7-1.5-1.5s0.7-1.5,1.5-1.5h5c0.8,0,1.5,0.7,1.5,1.5S33.3,84.5,32.5,84.5z"/></g><g><path d="M42.5,84.5h-5c-0.8,0-1.5-0.7-1.5-1.5s0.7-1.5,1.5-1.5h5c0.8,0,1.5,0.7,1.5,1.5S43.3,84.5,42.5,84.5z"/></g><g><path d="M52.5,84.5h-5c-0.8,0-1.5-0.7-1.5-1.5s0.7-1.5,1.5-1.5h5c0.8,0,1.5,0.7,1.5,1.5S53.3,84.5,52.5,84.5z"/></g><g><path d="M62.5,84.5h-5c-0.8,0-1.5-0.7-1.5-1.5s0.7-1.5,1.5-1.5h5c0.8,0,1.5,0.7,1.5,1.5S63.3,84.5,62.5,84.5z"/></g><g><path d="M72.5,84.5h-5c-0.8,0-1.5-0.7-1.5-1.5s0.7-1.5,1.5-1.5h5c0.8,0,1.5,0.7,1.5,1.5S73.3,84.5,72.5,84.5z"/></g><g><path d="M82.5,84.5h-5c-0.8,0-1.5-0.7-1.5-1.5s0.7-1.5,1.5-1.5h5c0.8,0,1.5,0.7,1.5,1.5S83.3,84.5,82.5,84.5z"/></g><g><path d="M12.5,78.5h-5C6.7,78.5,6,77.8,6,77s0.7-1.5,1.5-1.5h5c0.8,0,1.5,0.7,1.5,1.5S13.3,78.5,12.5,78.5z"/></g><g><path d="M22.5,78.5h-5c-0.8,0-1.5-0.7-1.5-1.5s0.7-1.5,1.5-1.5h5c0.8,0,1.5,0.7,1.5,1.5S23.3,78.5,22.5,78.5z"/></g><g><path d="M32.5,78.5h-5c-0.8,0-1.5-0.7-1.5-1.5s0.7-1.5,1.5-1.5h5c0.8,0,1.5,0.7,1.5,1.5S33.3,78.5,32.5,78.5z"/></g><g><path d="M42.5,78.5h-5c-0.8,0-1.5-0.7-1.5-1.5s0.7-1.5,1.5-1.5h5c0.8,0,1.5,0.7,1.5,1.5S43.3,78.5,42.5,78.5z"/></g><g><path d="M52.5,78.5h-5c-0.8,0-1.5-0.7-1.5-1.5s0.7-1.5,1.5-1.5h5c0.8,0,1.5,0.7,1.5,1.5S53.3,78.5,52.5,78.5z"/></g><g><path d="M62.5,78.5h-5c-0.8,0-1.5-0.7-1.5-1.5s0.7-1.5,1.5-1.5h5c0.8,0,1.5,0.7,1.5,1.5S63.3,78.5,62.5,78.5z"/></g><g><path d="M72.5,78.5h-5c-0.8,0-1.5-0.7-1.5-1.5s0.7-1.5,1.5-1.5h5c0.8,0,1.5,0.7,1.5,1.5S73.3,78.5,72.5,78.5z"/></g><g><path d="M82.5,78.5h-5c-0.8,0-1.5-0.7-1.5-1.5s0.7-1.5,1.5-1.5h5c0.8,0,1.5,0.7,1.5,1.5S83.3,78.5,82.5,78.5z"/></g><g><path d="M12.5,72.5h-5C6.7,72.5,6,71.8,6,71s0.7-1.5,1.5-1.5h5c0.8,0,1.5,0.7,1.5,1.5S13.3,72.5,12.5,72.5z"/></g><g><path d="M22.5,72.5h-5c-0.8,0-1.5-0.7-1.5-1.5s0.7-1.5,1.5-1.5h5c0.8,0,1.5,0.7,1.5,1.5S23.3,72.5,22.5,72.5z"/></g><g><path d="M32.5,72.5h-5c-0.8,0-1.5-0.7-1.5-1.5s0.7-1.5,1.5-1.5h5c0.8,0,1.5,0.7,1.5,1.5S33.3,72.5,32.5,72.5z"/></g><g><path d="M42.5,72.5h-5c-0.8,0-1.5-0.7-1.5-1.5s0.7-1.5,1.5-1.5h5c0.8,0,1.5,0.7,1.5,1.5S43.3,72.5,42.5,72.5z"/></g><g><path d="M92.5,84.5h-5c-0.8,0-1.5-0.7-1.5-1.5s0.7-1.5,1.5-1.5h5c0.8,0,1.5,0.7,1.5,1.5S93.3,84.5,92.5,84.5z"/></g><g><path d="M92.5,78.5h-5c-0.8,0-1.5-0.7-1.5-1.5s0.7-1.5,1.5-1.5h5c0.8,0,1.5,0.7,1.5,1.5S93.3,78.5,92.5,78.5z"/></g><g><path d="M92.5,72.5h-5c-0.8,0-1.5-0.7-1.5-1.5s0.7-1.5,1.5-1.5h5c0.8,0,1.5,0.7,1.5,1.5S93.3,72.5,92.5,72.5z"/></g><g><path d="M52.5,72.5h-5c-0.8,0-1.5-0.7-1.5-1.5s0.7-1.5,1.5-1.5h5c0.8,0,1.5,0.7,1.5,1.5S53.3,72.5,52.5,72.5z"/></g><g><path d="M62.5,72.5h-5c-0.8,0-1.5-0.7-1.5-1.5s0.7-1.5,1.5-1.5h5c0.8,0,1.5,0.7,1.5,1.5S63.3,72.5,62.5,72.5z"/></g><g><path d="M72.5,72.5h-5c-0.8,0-1.5-0.7-1.5-1.5s0.7-1.5,1.5-1.5h5c0.8,0,1.5,0.7,1.5,1.5S73.3,72.5,72.5,72.5z"/></g><g><path d="M82.5,72.5h-5c-0.8,0-1.5-0.7-1.5-1.5s0.7-1.5,1.5-1.5h5c0.8,0,1.5,0.7,1.5,1.5S83.3,72.5,82.5,72.5z"/></g><g><path d="M12.5,66.5h-5C6.7,66.5,6,65.8,6,65s0.7-1.5,1.5-1.5h5c0.8,0,1.5,0.7,1.5,1.5S13.3,66.5,12.5,66.5z"/></g><g><path d="M22.5,66.5h-5c-0.8,0-1.5-0.7-1.5-1.5s0.7-1.5,1.5-1.5h5c0.8,0,1.5,0.7,1.5,1.5S23.3,66.5,22.5,66.5z"/></g><g><path d="M32.5,66.5h-5c-0.8,0-1.5-0.7-1.5-1.5s0.7-1.5,1.5-1.5h5c0.8,0,1.5,0.7,1.5,1.5S33.3,66.5,32.5,66.5z"/></g><g><path d="M52.5,66.5h-5c-0.8,0-1.5-0.7-1.5-1.5s0.7-1.5,1.5-1.5h5c0.8,0,1.5,0.7,1.5,1.5S53.3,66.5,52.5,66.5z"/></g><g><path d="M62.5,66.5h-5c-0.8,0-1.5-0.7-1.5-1.5s0.7-1.5,1.5-1.5h5c0.8,0,1.5,0.7,1.5,1.5S63.3,66.5,62.5,66.5z"/></g><g><path d="M72.5,66.5h-5c-0.8,0-1.5-0.7-1.5-1.5s0.7-1.5,1.5-1.5h5c0.8,0,1.5,0.7,1.5,1.5S73.3,66.5,72.5,66.5z"/></g><g><path d="M82.5,66.5h-5c-0.8,0-1.5-0.7-1.5-1.5s0.7-1.5,1.5-1.5h5c0.8,0,1.5,0.7,1.5,1.5S83.3,66.5,82.5,66.5z"/></g><g><path d="M12.5,60.5h-5C6.7,60.5,6,59.8,6,59s0.7-1.5,1.5-1.5h5c0.8,0,1.5,0.7,1.5,1.5S13.3,60.5,12.5,60.5z"/></g><g><path d="M32.5,60.5h-5c-0.8,0-1.5-0.7-1.5-1.5s0.7-1.5,1.5-1.5h5c0.8,0,1.5,0.7,1.5,1.5S33.3,60.5,32.5,60.5z"/></g><g><path d="M52.5,60.5h-5c-0.8,0-1.5-0.7-1.5-1.5s0.7-1.5,1.5-1.5h5c0.8,0,1.5,0.7,1.5,1.5S53.3,60.5,52.5,60.5z"/></g><g><path d="M62.5,60.5h-5c-0.8,0-1.5-0.7-1.5-1.5s0.7-1.5,1.5-1.5h5c0.8,0,1.5,0.7,1.5,1.5S63.3,60.5,62.5,60.5z"/></g><g><path d="M72.5,60.5h-5c-0.8,0-1.5-0.7-1.5-1.5s0.7-1.5,1.5-1.5h5c0.8,0,1.5,0.7,1.5,1.5S73.3,60.5,72.5,60.5z"/></g><g><path d="M82.5,60.5h-5c-0.8,0-1.5-0.7-1.5-1.5s0.7-1.5,1.5-1.5h5c0.8,0,1.5,0.7,1.5,1.5S83.3,60.5,82.5,60.5z"/></g><g><path d="M32.5,54.5h-5c-0.8,0-1.5-0.7-1.5-1.5s0.7-1.5,1.5-1.5h5c0.8,0,1.5,0.7,1.5,1.5S33.3,54.5,32.5,54.5z"/></g><g><path d="M52.5,54.5h-5c-0.8,0-1.5-0.7-1.5-1.5s0.7-1.5,1.5-1.5h5c0.8,0,1.5,0.7,1.5,1.5S53.3,54.5,52.5,54.5z"/></g><g><path d="M62.5,54.5h-5c-0.8,0-1.5-0.7-1.5-1.5s0.7-1.5,1.5-1.5h5c0.8,0,1.5,0.7,1.5,1.5S63.3,54.5,62.5,54.5z"/></g><g><path d="M72.5,54.5h-5c-0.8,0-1.5-0.7-1.5-1.5s0.7-1.5,1.5-1.5h5c0.8,0,1.5,0.7,1.5,1.5S73.3,54.5,72.5,54.5z"/></g><g><path d="M82.5,54.5h-5c-0.8,0-1.5-0.7-1.5-1.5s0.7-1.5,1.5-1.5h5c0.8,0,1.5,0.7,1.5,1.5S83.3,54.5,82.5,54.5z"/></g><g><path d="M32.5,48.5h-5c-0.8,0-1.5-0.7-1.5-1.5s0.7-1.5,1.5-1.5h5c0.8,0,1.5,0.7,1.5,1.5S33.3,48.5,32.5,48.5z"/></g><g><path d="M52.5,48.5h-5c-0.8,0-1.5-0.7-1.5-1.5s0.7-1.5,1.5-1.5h5c0.8,0,1.5,0.7,1.5,1.5S53.3,48.5,52.5,48.5z"/></g><g><path d="M62.5,48.5h-5c-0.8,0-1.5-0.7-1.5-1.5s0.7-1.5,1.5-1.5h5c0.8,0,1.5,0.7,1.5,1.5S63.3,48.5,62.5,48.5z"/></g><g><path d="M72.5,48.5h-5c-0.8,0-1.5-0.7-1.5-1.5s0.7-1.5,1.5-1.5h5c0.8,0,1.5,0.7,1.5,1.5S73.3,48.5,72.5,48.5z"/></g><g><path d="M52.5,42.5h-5c-0.8,0-1.5-0.7-1.5-1.5s0.7-1.5,1.5-1.5h5c0.8,0,1.5,0.7,1.5,1.5S53.3,42.5,52.5,42.5z"/></g><g><path d="M72.5,42.5h-5c-0.8,0-1.5-0.7-1.5-1.5s0.7-1.5,1.5-1.5h5c0.8,0,1.5,0.7,1.5,1.5S73.3,42.5,72.5,42.5z"/></g><g><path d="M52.5,36.5h-5c-0.8,0-1.5-0.7-1.5-1.5s0.7-1.5,1.5-1.5h5c0.8,0,1.5,0.7,1.5,1.5S53.3,36.5,52.5,36.5z"/></g><g><path d="M72.5,36.5h-5c-0.8,0-1.5-0.7-1.5-1.5s0.7-1.5,1.5-1.5h5c0.8,0,1.5,0.7,1.5,1.5S73.3,36.5,72.5,36.5z"/></g><g><path d="M52.5,30.5h-5c-0.8,0-1.5-0.7-1.5-1.5s0.7-1.5,1.5-1.5h5c0.8,0,1.5,0.7,1.5,1.5S53.3,30.5,52.5,30.5z"/></g><g><path d="M52.5,24.5h-5c-0.8,0-1.5-0.7-1.5-1.5s0.7-1.5,1.5-1.5h5c0.8,0,1.5,0.7,1.5,1.5S53.3,24.5,52.5,24.5z"/></g><g><path d="M52.5,18.5h-5c-0.8,0-1.5-0.7-1.5-1.5s0.7-1.5,1.5-1.5h5c0.8,0,1.5,0.7,1.5,1.5S53.3,18.5,52.5,18.5z"/></g><text x="0" y="115" fill="#000000" font-size="5px" font-weight="bold" font-family="'Helvetica Neue', Helvetica, Arial-Unicode, Arial, Sans-serif">Created by kiddo</text><text x="0" y="120" fill="#000000" font-size="5px" font-weight="bold" font-family="'Helvetica Neue', Helvetica, Arial-Unicode, Arial, Sans-serif">from the Noun Project</text></svg>